<svg id="ejroU0PBa7c1" xmlns="http://www.w3.org/2000/svg" xmlns:xlink="http://www.w3.org/1999/xlink" viewBox="0 0 16 16" shape-rendering="geometricPrecision" text-rendering="geometricPrecision"><style><![CDATA[#ejroU0PBa7c2_ts {animation: ejroU0PBa7c2_ts__ts 3000ms linear infinite normal forwards}@keyframes ejroU0PBa7c2_ts__ts { 0% {transform: translate(7.999696px,8px) rotate(-180deg) scale(1,1)} 50% {transform: translate(7.999696px,8px) rotate(-180deg) scale(-0.002513,1)} 100% {transform: translate(7.999696px,8px) rotate(-180deg) scale(0.999962,1.000759)}}]]></style><g id="ejroU0PBa7c2_ts" transform="translate(7.999696,8) rotate(-180) scale(1,1)"><g id="ejroU0PBa7c2" transform="translate(-8,-8)"><rect id="ejroU0PBa7c3" width="4" height="1" rx="0" ry="0" transform="matrix(1 0 0 1 6 14)" fill="rgb(35,30,43)" stroke="none" stroke-width="1"/><rect id="ejroU0PBa7c4" width="2" height="1" rx="0" ry="0" transform="matrix(1 0 0 1 10 13)" fill="rgb(35,30,43)" stroke="none" stroke-width="1"/><rect id="ejroU0PBa7c5" width="4" height="1" rx="0" ry="0" transform="matrix(1 0 0 1 6 13)" fill="rgb(137,39,39)" stroke="none" stroke-width="1"/><rect id="ejroU0PBa7c6" width="2" height="1" rx="0" ry="0" transform="matrix(1 0 0 1 4 13)" fill="rgb(35,30,43)" stroke="none" stroke-width="1"/><rect id="ejroU0PBa7c7" width="1" height="1" rx="0" ry="0" transform="matrix(1 0 0 1 12 12)" fill="rgb(35,30,43)" stroke="none" stroke-width="1"/><rect id="ejroU0PBa7c8" width="4" height="1" rx="0" ry="0" transform="matrix(1 0 0 1 6 12)" fill="rgb(207,107,85)" stroke="none" stroke-width="1"/><rect id="ejroU0PBa7c9" width="1" height="1" rx="0" ry="0" transform="matrix(1 0 0 1 3 12)" fill="rgb(35,30,43)" stroke="none" stroke-width="1"/><rect id="ejroU0PBa7c10" width="1" height="1" rx="0" ry="0" transform="matrix(1 0 0 1 10 11)" fill="rgb(207,107,85)" stroke="none" stroke-width="1"/><polygon id="ejroU0PBa7c11" points="10,12 10,11 8,11 8,10 7,10 7,11 6,11 6,12 10,12" fill="rgb(35,30,43)" stroke="none" stroke-width="1"/><rect id="ejroU0PBa7c12" width="1" height="1" rx="0" ry="0" transform="matrix(1 0 0 1 5 11)" fill="rgb(137,39,39)" stroke="none" stroke-width="1"/><rect id="ejroU0PBa7c13" width="1" height="2" rx="0" ry="0" transform="matrix(1 0 0 1 2 10)" fill="rgb(35,30,43)" stroke="none" stroke-width="1"/><rect id="ejroU0PBa7c14" width="1" height="2" rx="0" ry="0" transform="matrix(1 0 0 1 13 10)" fill="rgb(35,30,43)" stroke="none" stroke-width="1"/><rect id="ejroU0PBa7c15" width="1" height="1" rx="0" ry="0" transform="matrix(1 0 0 1 11 10)" fill="rgb(207,107,85)" stroke="none" stroke-width="1"/><rect id="ejroU0PBa7c16" width="1" height="1" rx="0" ry="0" transform="matrix(1 0 0 1 10 10)" fill="rgb(35,30,43)" stroke="none" stroke-width="1"/><rect id="ejroU0PBa7c17" width="1" height="1" rx="0" ry="0" transform="matrix(1 0 0 1 6 10)" fill="rgb(137,39,39)" stroke="none" stroke-width="1"/><rect id="ejroU0PBa7c18" width="1" height="1" rx="0" ry="0" transform="matrix(1 0 0 1 8 9)" fill="rgb(35,30,43)" stroke="none" stroke-width="1"/><rect id="ejroU0PBa7c19" width="1" height="1" rx="0" ry="0" transform="matrix(1 0 0 1 7 9)" fill="rgb(137,39,39)" stroke="none" stroke-width="1"/><rect id="ejroU0PBa7c20" width="1" height="1" rx="0" ry="0" transform="matrix(1 0 0 1 6 9)" fill="rgb(176,57,46)" stroke="none" stroke-width="1"/><rect id="ejroU0PBa7c21" width="1" height="1" rx="0" ry="0" transform="matrix(1 0 0 1 5 9)" fill="rgb(207,107,85)" stroke="none" stroke-width="1"/><rect id="ejroU0PBa7c22" width="1" height="4" rx="0" ry="0" transform="matrix(1 0 0 1 1 6)" fill="rgb(35,30,43)" stroke="none" stroke-width="1"/><rect id="ejroU0PBa7c23" width="1" height="4" rx="0" ry="0" transform="matrix(1 0 0 1 14 6)" fill="rgb(35,30,43)" stroke="none" stroke-width="1"/><rect id="ejroU0PBa7c24" width="1" height="1" rx="0" ry="0" transform="matrix(1 0 0 1 9 8)" fill="rgb(35,30,43)" stroke="none" stroke-width="1"/><rect id="ejroU0PBa7c25" width="1" height="1" rx="0" ry="0" transform="matrix(1 0 0 1 8 8)" fill="rgb(137,39,39)" stroke="none" stroke-width="1"/><rect id="ejroU0PBa7c26" width="1" height="1" rx="0" ry="0" transform="matrix(1 0 0 1 7 8)" fill="rgb(176,57,46)" stroke="none" stroke-width="1"/><rect id="ejroU0PBa7c27" width="1" height="1" rx="0" ry="0" transform="matrix(1 0 0 1 6 8)" fill="rgb(207,107,85)" stroke="none" stroke-width="1"/><polygon id="ejroU0PBa7c28" points="6,9 6,8 5,8 5,6 4,6 4,10 5,10 5,9 6,9" fill="rgb(35,30,43)" stroke="none" stroke-width="1"/><polygon id="ejroU0PBa7c29" points="10,7 10,8 11,8 11,10 12,10 12,6 11,6 11,7 10,7" fill="rgb(35,30,43)" stroke="none" stroke-width="1"/><rect id="ejroU0PBa7c30" width="1" height="1" rx="0" ry="0" transform="matrix(1 0 0 1 9 7)" fill="rgb(137,39,39)" stroke="none" stroke-width="1"/><rect id="ejroU0PBa7c31" width="1" height="1" rx="0" ry="0" transform="matrix(1 0 0 1 8 7)" fill="rgb(176,57,46)" stroke="none" stroke-width="1"/><rect id="ejroU0PBa7c32" width="1" height="1" rx="0" ry="0" transform="matrix(1 0 0 1 7 7)" fill="rgb(207,107,85)" stroke="none" stroke-width="1"/><rect id="ejroU0PBa7c33" width="1" height="1" rx="0" ry="0" transform="matrix(1 0 0 1 6 7)" fill="rgb(35,30,43)" stroke="none" stroke-width="1"/><rect id="ejroU0PBa7c34" width="1" height="1" rx="0" ry="0" transform="matrix(1 0 0 1 10 6)" fill="rgb(137,39,39)" stroke="none" stroke-width="1"/><rect id="ejroU0PBa7c35" width="1" height="1" rx="0" ry="0" transform="matrix(1 0 0 1 9 6)" fill="rgb(176,57,46)" stroke="none" stroke-width="1"/><rect id="ejroU0PBa7c36" width="1" height="1" rx="0" ry="0" transform="matrix(1 0 0 1 8 6)" fill="rgb(207,107,85)" stroke="none" stroke-width="1"/><rect id="ejroU0PBa7c37" width="1" height="1" rx="0" ry="0" transform="matrix(1 0 0 1 7 6)" fill="rgb(35,30,43)" stroke="none" stroke-width="1"/><polygon id="ejroU0PBa7c38" points="13,4 12,4 12,3 4,3 4,4 3,4 3,6 2,6 2,10 3,10 3,12 4,12 4,13 6,13 6,12 5,12 5,11 6,11 6,10 4,10 4,6 5,6 5,5 6,5 6,4 10,4 10,6 12,6 12,11 11,11 11,12 10,12 10,13 12,13 12,12 13,12 13,10 14,10 14,6 13,6 13,4" fill="rgb(176,57,46)" stroke="none" stroke-width="1"/><rect id="ejroU0PBa7c39" width="1" height="1" rx="0" ry="0" transform="matrix(1 0 0 1 9 5)" fill="rgb(207,107,85)" stroke="none" stroke-width="1"/><rect id="ejroU0PBa7c40" width="1" height="1" rx="0" ry="0" transform="matrix(1 0 0 1 5 5)" fill="rgb(35,30,43)" stroke="none" stroke-width="1"/><rect id="ejroU0PBa7c41" width="1" height="2" rx="0" ry="0" transform="matrix(1 0 0 1 2 4)" fill="rgb(35,30,43)" stroke="none" stroke-width="1"/><rect id="ejroU0PBa7c42" width="1" height="2" rx="0" ry="0" transform="matrix(1 0 0 1 13 4)" fill="rgb(35,30,43)" stroke="none" stroke-width="1"/><polygon id="ejroU0PBa7c43" points="8,5 8,6 9,6 9,5 10,5 10,4 6,4 6,5 8,5" fill="rgb(35,30,43)" stroke="none" stroke-width="1"/><rect id="ejroU0PBa7c44" width="1" height="1" rx="0" ry="0" transform="matrix(1 0 0 1 12 3)" fill="rgb(35,30,43)" stroke="none" stroke-width="1"/><rect id="ejroU0PBa7c45" width="1" height="1" rx="0" ry="0" transform="matrix(1 0 0 1 3 3)" fill="rgb(35,30,43)" stroke="none" stroke-width="1"/><rect id="ejroU0PBa7c46" width="2" height="1" rx="0" ry="0" transform="matrix(1 0 0 1 10 2)" fill="rgb(35,30,43)" stroke="none" stroke-width="1"/><rect id="ejroU0PBa7c47" width="4" height="1" rx="0" ry="0" transform="matrix(1 0 0 1 6 2)" fill="rgb(207,107,85)" stroke="none" stroke-width="1"/><rect id="ejroU0PBa7c48" width="2" height="1" rx="0" ry="0" transform="matrix(1 0 0 1 4 2)" fill="rgb(35,30,43)" stroke="none" stroke-width="1"/><rect id="ejroU0PBa7c49" width="4" height="1" rx="0" ry="0" transform="matrix(1 0 0 1 6 1)" fill="rgb(35,30,43)" stroke="none" stroke-width="1"/></g></g></svg>