<svg id="e1FmVj9ncOs1" xmlns="http://www.w3.org/2000/svg" xmlns:xlink="http://www.w3.org/1999/xlink" viewBox="0 0 16 16" shape-rendering="geometricPrecision" text-rendering="geometricPrecision"><style><![CDATA[#e1FmVj9ncOs2_ts {animation: e1FmVj9ncOs2_ts__ts 3000ms linear infinite alternate backwards}@keyframes e1FmVj9ncOs2_ts__ts { 0% {transform: translate(8px,8px) scale(1,1)} 33.333333% {transform: translate(8px,8px) scale(1.05332,1.053318)} 50% {transform: translate(8px,8px) scale(1.140697,1.140696)} 66.666667% {transform: translate(8px,8px) scale(1.047585,1.047585)} 100% {transform: translate(8px,8px) scale(1,1)}}]]></style><g id="e1FmVj9ncOs2_ts" transform="translate(8,8) scale(1,1)"><g id="e1FmVj9ncOs2" transform="translate(-8,-8)"><rect id="e1FmVj9ncOs3" width="2" height="1" rx="0" ry="0" transform="matrix(1 0 0 1 11 14)" fill="rgb(35,30,43)" stroke="none" stroke-width="1"/><rect id="e1FmVj9ncOs4" width="2" height="1" rx="0" ry="0" transform="matrix(1 0 0 1 3 14)" fill="rgb(35,30,43)" stroke="none" stroke-width="1"/><rect id="e1FmVj9ncOs5" width="1" height="1" rx="0" ry="0" transform="matrix(1 0 0 1 13 13)" fill="rgb(35,30,43)" stroke="none" stroke-width="1"/><rect id="e1FmVj9ncOs6" width="2" height="1" rx="0" ry="0" transform="matrix(1 0 0 1 11 13)" fill="rgb(137,39,39)" stroke="none" stroke-width="1"/><rect id="e1FmVj9ncOs7" width="1" height="1" rx="0" ry="0" transform="matrix(1 0 0 1 10 13)" fill="rgb(35,30,43)" stroke="none" stroke-width="1"/><rect id="e1FmVj9ncOs8" width="1" height="1" rx="0" ry="0" transform="matrix(1 0 0 1 5 13)" fill="rgb(35,30,43)" stroke="none" stroke-width="1"/><rect id="e1FmVj9ncOs9" width="2" height="1" rx="0" ry="0" transform="matrix(1 0 0 1 3 13)" fill="rgb(137,39,39)" stroke="none" stroke-width="1"/><rect id="e1FmVj9ncOs10" width="1" height="1" rx="0" ry="0" transform="matrix(1 0 0 1 2 13)" fill="rgb(35,30,43)" stroke="none" stroke-width="1"/><rect id="e1FmVj9ncOs11" width="1" height="1" rx="0" ry="0" transform="matrix(1 0 0 1 13 12)" fill="rgb(137,39,39)" stroke="none" stroke-width="1"/><rect id="e1FmVj9ncOs12" width="1" height="1" rx="0" ry="0" transform="matrix(1 0 0 1 10 12)" fill="rgb(137,39,39)" stroke="none" stroke-width="1"/><rect id="e1FmVj9ncOs13" width="1" height="1" rx="0" ry="0" transform="matrix(1 0 0 1 9 12)" fill="rgb(35,30,43)" stroke="none" stroke-width="1"/><rect id="e1FmVj9ncOs14" width="1" height="1" rx="0" ry="0" transform="matrix(1 0 0 1 6 12)" fill="rgb(35,30,43)" stroke="none" stroke-width="1"/><rect id="e1FmVj9ncOs15" width="1" height="1" rx="0" ry="0" transform="matrix(1 0 0 1 5 12)" fill="rgb(137,39,39)" stroke="none" stroke-width="1"/><rect id="e1FmVj9ncOs16" width="1" height="1" rx="0" ry="0" transform="matrix(1 0 0 1 2 12)" fill="rgb(137,39,39)" stroke="none" stroke-width="1"/><rect id="e1FmVj9ncOs17" width="1" height="2" rx="0" ry="0" transform="matrix(1 0 0 1 1 11)" fill="rgb(35,30,43)" stroke="none" stroke-width="1"/><rect id="e1FmVj9ncOs18" width="1" height="2" rx="0" ry="0" transform="matrix(1 0 0 1 14 11)" fill="rgb(35,30,43)" stroke="none" stroke-width="1"/><rect id="e1FmVj9ncOs19" width="1" height="1" rx="0" ry="0" transform="matrix(1 0 0 1 13 11)" fill="rgb(207,107,85)" stroke="none" stroke-width="1"/><rect id="e1FmVj9ncOs20" width="1" height="1" rx="0" ry="0" transform="matrix(1 0 0 1 9 11)" fill="rgb(137,39,39)" stroke="none" stroke-width="1"/><rect id="e1FmVj9ncOs21" width="2" height="1" rx="0" ry="0" transform="matrix(1 0 0 1 7 11)" fill="rgb(35,30,43)" stroke="none" stroke-width="1"/><rect id="e1FmVj9ncOs22" width="1" height="1" rx="0" ry="0" transform="matrix(1 0 0 1 6 11)" fill="rgb(137,39,39)" stroke="none" stroke-width="1"/><rect id="e1FmVj9ncOs23" width="1" height="1" rx="0" ry="0" transform="matrix(1 0 0 1 2 11)" fill="rgb(207,107,85)" stroke="none" stroke-width="1"/><rect id="e1FmVj9ncOs24" width="1" height="1" rx="0" ry="0" transform="matrix(1 0 0 1 13 10)" fill="rgb(35,30,43)" stroke="none" stroke-width="1"/><rect id="e1FmVj9ncOs25" width="1" height="1" rx="0" ry="0" transform="matrix(1 0 0 1 12 10)" fill="rgb(207,107,85)" stroke="none" stroke-width="1"/><rect id="e1FmVj9ncOs26" width="2" height="1" rx="0" ry="0" transform="matrix(1 0 0 1 7 10)" fill="rgb(137,39,39)" stroke="none" stroke-width="1"/><rect id="e1FmVj9ncOs27" width="1" height="1" rx="0" ry="0" transform="matrix(1 0 0 1 3 10)" fill="rgb(207,107,85)" stroke="none" stroke-width="1"/><rect id="e1FmVj9ncOs28" width="1" height="1" rx="0" ry="0" transform="matrix(1 0 0 1 2 10)" fill="rgb(35,30,43)" stroke="none" stroke-width="1"/><rect id="e1FmVj9ncOs29" width="1" height="1" rx="0" ry="0" transform="matrix(1 0 0 1 12 9)" fill="rgb(35,30,43)" stroke="none" stroke-width="1"/><rect id="e1FmVj9ncOs30" width="1" height="1" rx="0" ry="0" transform="matrix(1 0 0 1 11 9)" fill="rgb(207,107,85)" stroke="none" stroke-width="1"/><rect id="e1FmVj9ncOs31" width="1" height="1" rx="0" ry="0" transform="matrix(1 0 0 1 4 9)" fill="rgb(207,107,85)" stroke="none" stroke-width="1"/><rect id="e1FmVj9ncOs32" width="1" height="1" rx="0" ry="0" transform="matrix(1 0 0 1 3 9)" fill="rgb(35,30,43)" stroke="none" stroke-width="1"/><rect id="e1FmVj9ncOs33" width="1" height="2" rx="0" ry="0" transform="matrix(1 0 0 1 4 7)" fill="rgb(35,30,43)" stroke="none" stroke-width="1"/><rect id="e1FmVj9ncOs34" width="1" height="2" rx="0" ry="0" transform="matrix(1 0 0 1 11 7)" fill="rgb(35,30,43)" stroke="none" stroke-width="1"/><rect id="e1FmVj9ncOs35" width="1" height="1" rx="0" ry="0" transform="matrix(1 0 0 1 10 7)" fill="rgb(137,39,39)" stroke="none" stroke-width="1"/><rect id="e1FmVj9ncOs36" width="1" height="1" rx="0" ry="0" transform="matrix(1 0 0 1 5 7)" fill="rgb(137,39,39)" stroke="none" stroke-width="1"/><rect id="e1FmVj9ncOs37" width="1" height="1" rx="0" ry="0" transform="matrix(1 0 0 1 12 6)" fill="rgb(35,30,43)" stroke="none" stroke-width="1"/><rect id="e1FmVj9ncOs38" width="1" height="1" rx="0" ry="0" transform="matrix(1 0 0 1 11 6)" fill="rgb(137,39,39)" stroke="none" stroke-width="1"/><rect id="e1FmVj9ncOs39" width="1" height="1" rx="0" ry="0" transform="matrix(1 0 0 1 4 6)" fill="rgb(137,39,39)" stroke="none" stroke-width="1"/><rect id="e1FmVj9ncOs40" width="1" height="1" rx="0" ry="0" transform="matrix(1 0 0 1 3 6)" fill="rgb(35,30,43)" stroke="none" stroke-width="1"/><rect id="e1FmVj9ncOs41" width="1" height="1" rx="0" ry="0" transform="matrix(1 0 0 1 13 5)" fill="rgb(35,30,43)" stroke="none" stroke-width="1"/><rect id="e1FmVj9ncOs42" width="1" height="1" rx="0" ry="0" transform="matrix(1 0 0 1 12 5)" fill="rgb(137,39,39)" stroke="none" stroke-width="1"/><rect id="e1FmVj9ncOs43" width="2" height="1" rx="0" ry="0" transform="matrix(1 0 0 1 7 5)" fill="rgb(207,107,85)" stroke="none" stroke-width="1"/><rect id="e1FmVj9ncOs44" width="1" height="1" rx="0" ry="0" transform="matrix(1 0 0 1 3 5)" fill="rgb(137,39,39)" stroke="none" stroke-width="1"/><rect id="e1FmVj9ncOs45" width="1" height="1" rx="0" ry="0" transform="matrix(1 0 0 1 2 5)" fill="rgb(35,30,43)" stroke="none" stroke-width="1"/><rect id="e1FmVj9ncOs46" width="1" height="1" rx="0" ry="0" transform="matrix(1 0 0 1 13 4)" fill="rgb(137,39,39)" stroke="none" stroke-width="1"/><rect id="e1FmVj9ncOs47" width="1" height="1" rx="0" ry="0" transform="matrix(1 0 0 1 9 4)" fill="rgb(207,107,85)" stroke="none" stroke-width="1"/><rect id="e1FmVj9ncOs48" width="2" height="1" rx="0" ry="0" transform="matrix(1 0 0 1 7 4)" fill="rgb(35,30,43)" stroke="none" stroke-width="1"/><rect id="e1FmVj9ncOs49" width="1" height="1" rx="0" ry="0" transform="matrix(1 0 0 1 6 4)" fill="rgb(207,107,85)" stroke="none" stroke-width="1"/><rect id="e1FmVj9ncOs50" width="1" height="1" rx="0" ry="0" transform="matrix(1 0 0 1 2 4)" fill="rgb(137,39,39)" stroke="none" stroke-width="1"/><rect id="e1FmVj9ncOs51" width="1" height="2" rx="0" ry="0" transform="matrix(1 0 0 1 1 3)" fill="rgb(35,30,43)" stroke="none" stroke-width="1"/><rect id="e1FmVj9ncOs52" width="1" height="2" rx="0" ry="0" transform="matrix(1 0 0 1 14 3)" fill="rgb(35,30,43)" stroke="none" stroke-width="1"/><rect id="e1FmVj9ncOs53" width="1" height="1" rx="0" ry="0" transform="matrix(1 0 0 1 13 3)" fill="rgb(207,107,85)" stroke="none" stroke-width="1"/><polygon id="e1FmVj9ncOs54" points="13,3 11,3 11,4 10,4 10,5 9,5 9,6 7,6 7,5 6,5 6,4 5,4 5,3 2,3 2,4 3,4 3,5 4,5 4,6 5,6 5,7 6,7 6,8 5,8 5,10 4,10 4,11 3,11 3,13 5,13 5,12 6,12 6,11 7,11 7,10 9,10 9,11 10,11 10,12 11,12 11,13 13,13 13,11 12,11 12,10 11,10 11,8 10,8 10,7 11,7 11,6 12,6 12,5 13,5 13,3" fill="rgb(176,57,46)" stroke="none" stroke-width="1"/><rect id="e1FmVj9ncOs55" width="1" height="1" rx="0" ry="0" transform="matrix(1 0 0 1 10 3)" fill="rgb(207,107,85)" stroke="none" stroke-width="1"/><rect id="e1FmVj9ncOs56" width="1" height="1" rx="0" ry="0" transform="matrix(1 0 0 1 9 3)" fill="rgb(35,30,43)" stroke="none" stroke-width="1"/><rect id="e1FmVj9ncOs57" width="1" height="1" rx="0" ry="0" transform="matrix(1 0 0 1 6 3)" fill="rgb(35,30,43)" stroke="none" stroke-width="1"/><rect id="e1FmVj9ncOs58" width="1" height="1" rx="0" ry="0" transform="matrix(1 0 0 1 5 3)" fill="rgb(207,107,85)" stroke="none" stroke-width="1"/><rect id="e1FmVj9ncOs59" width="1" height="1" rx="0" ry="0" transform="matrix(1 0 0 1 13 2)" fill="rgb(35,30,43)" stroke="none" stroke-width="1"/><rect id="e1FmVj9ncOs60" width="2" height="1" rx="0" ry="0" transform="matrix(1 0 0 1 11 2)" fill="rgb(207,107,85)" stroke="none" stroke-width="1"/><rect id="e1FmVj9ncOs61" width="1" height="1" rx="0" ry="0" transform="matrix(1 0 0 1 10 2)" fill="rgb(35,30,43)" stroke="none" stroke-width="1"/><rect id="e1FmVj9ncOs62" width="1" height="1" rx="0" ry="0" transform="matrix(1 0 0 1 5 2)" fill="rgb(35,30,43)" stroke="none" stroke-width="1"/><rect id="e1FmVj9ncOs63" width="2" height="1" rx="0" ry="0" transform="matrix(1 0 0 1 3 2)" fill="rgb(207,107,85)" stroke="none" stroke-width="1"/><rect id="e1FmVj9ncOs64" width="1" height="1" rx="0" ry="0" transform="matrix(1 0 0 1 2 2)" fill="rgb(35,30,43)" stroke="none" stroke-width="1"/><rect id="e1FmVj9ncOs65" width="2" height="1" rx="0" ry="0" transform="matrix(1 0 0 1 11 1)" fill="rgb(35,30,43)" stroke="none" stroke-width="1"/><rect id="e1FmVj9ncOs66" width="2" height="1" rx="0" ry="0" transform="matrix(1 0 0 1 3 1)" fill="rgb(35,30,43)" stroke="none" stroke-width="1"/></g></g></svg>